<svg id="Logo_final" data-name="Logo final" xmlns="http://www.w3.org/2000/svg" xmlns:xlink="http://www.w3.org/1999/xlink" viewBox="0 0 226.77 82.6"><defs><style>.cls-1{fill:#075ae0;}.cls-2{fill:url(#Degradado_sin_nombre_373);}.cls-3{fill:url(#Degradado_sin_nombre_373-2);}.cls-4{fill:url(#Degradado_sin_nombre_373-3);}.cls-5{fill:url(#Degradado_sin_nombre_105);}.cls-6{fill:url(#Degradado_sin_nombre_92);}.cls-7{fill:url(#Degradado_sin_nombre_92-2);}.cls-8{fill:url(#Degradado_sin_nombre_92-3);}</style><linearGradient id="Degradado_sin_nombre_373" x1="402.3" y1="304.11" x2="402.3" y2="338.51" gradientUnits="userSpaceOnUse"><stop offset="0" stop-color="#2153a1"/><stop offset="0.41" stop-color="#6f3293"/><stop offset="1" stop-color="#e6007e"/></linearGradient><linearGradient id="Degradado_sin_nombre_373-2" x1="441.82" y1="304.29" x2="441.82" y2="338.94" xlink:href="#Degradado_sin_nombre_373"/><linearGradient id="Degradado_sin_nombre_373-3" x1="471.83" y1="296.19" x2="471.83" y2="338.51" xlink:href="#Degradado_sin_nombre_373"/><linearGradient id="Degradado_sin_nombre_105" x1="667.96" y1="332.84" x2="715.78" y2="332.86" gradientTransform="matrix(0.64, -0.77, 0.77, 0.64, -214.76, 605.76)" gradientUnits="userSpaceOnUse"><stop offset="0" stop-color="#007ffc"/><stop offset="0.01" stop-color="#027df7"/><stop offset="0.04" stop-color="#0b70dc"/><stop offset="0.08" stop-color="#1365c6"/><stop offset="0.12" stop-color="#1a5db5"/><stop offset="0.18" stop-color="#1e57aa"/><stop offset="0.26" stop-color="#2054a3"/><stop offset="0.47" stop-color="#2153a1"/><stop offset="0.7" stop-color="#1464c5"/><stop offset="1" stop-color="#007ffc"/></linearGradient><linearGradient id="Degradado_sin_nombre_92" x1="471.59" y1="294.25" x2="485.49" y2="294.25" gradientTransform="matrix(1, -0.07, 0.07, 1, -19.12, 38.24)" gradientUnits="userSpaceOnUse"><stop offset="0" stop-color="#2153a1"/><stop offset="0.1" stop-color="#2a4f9f"/><stop offset="0.27" stop-color="#41469b"/><stop offset="0.47" stop-color="#673695"/><stop offset="0.71" stop-color="#9c1f8b"/><stop offset="0.97" stop-color="#df037f"/><stop offset="1" stop-color="#e6007e"/></linearGradient><linearGradient id="Degradado_sin_nombre_92-2" x1="472.49" y1="288.2" x2="494.66" y2="288.2" xlink:href="#Degradado_sin_nombre_92"/><linearGradient id="Degradado_sin_nombre_92-3" x1="493.21" y1="287.8" x2="519.33" y2="287.8" gradientTransform="translate(-49.4 61.68) rotate(-7.47)" xlink:href="#Degradado_sin_nombre_92"/></defs><title>logo_LIVENET</title><path class="cls-1" d="M298.5,332H309l-1.05,6.18H289.61l5.68-33.35h7.84Z" transform="translate(-289.61 -256.34)"/><path class="cls-1" d="M325,304.83l-5.69,33.35h-7.83l5.68-33.35Z" transform="translate(-289.61 -256.34)"/><path class="cls-1" d="M336.5,304.83l3.62,25.09,12.23-25.09h8.39l-17,33.35H333.65l-5.54-33.35Z" transform="translate(-289.61 -256.34)"/><path class="cls-1" d="M380.48,324.92H368.75L367.36,332h13.18l-1.16,6.18h-21.3l5.69-33.35h21.62L384.23,311H371.18l-1.24,7h11.79Z" transform="translate(-289.61 -256.34)"/><path class="cls-2" d="M416.51,306.89q3,2.79,3.05,8.17a20.93,20.93,0,0,1-.38,3.77l-3.58,19.68h-4.33l3.46-19.37a17.08,17.08,0,0,0,.31-3,8,8,0,0,0-2.35-6.22,9.32,9.32,0,0,0-6.5-2.13,12.58,12.58,0,0,0-8.75,3.25q-3.62,3.24-4.74,9.56l-3.2,17.94H385l6.09-33.78h4.39L394,313a14.84,14.84,0,0,1,6-6.62,16.13,16.13,0,0,1,8.35-2.29A11.62,11.62,0,0,1,416.51,306.89Z" transform="translate(-289.61 -256.34)"/><path class="cls-3" d="M452.58,305.94a11.14,11.14,0,0,1,4.64,4.42,12.44,12.44,0,0,1,1.57,6.24,16.7,16.7,0,0,1-1.13,6h-28.3c-.16,1.32-.25,2.25-.25,2.78,0,3.3,1,5.78,2.89,7.46a10.78,10.78,0,0,0,7.34,2.5,14.6,14.6,0,0,0,8.12-2.29,11.89,11.89,0,0,0,4.93-6.19H457a17.69,17.69,0,0,1-6.77,8.73,19.58,19.58,0,0,1-11.42,3.34q-6.4,0-10.2-3.59t-3.8-9.9a23,23,0,0,1,.38-4,21.74,21.74,0,0,1,3.8-9.16,19.07,19.07,0,0,1,7-5.94,20.28,20.28,0,0,1,9-2A15.75,15.75,0,0,1,452.58,305.94Zm1.89,10.91a8.14,8.14,0,0,0-2.86-6.74,11.1,11.1,0,0,0-7.19-2.29,14.66,14.66,0,0,0-9.25,3.19c-2.75,2.12-4.53,5.25-5.37,9.37H454A15,15,0,0,0,454.47,316.85Z" transform="translate(-289.61 -256.34)"/><path class="cls-4" d="M473.72,308.5h5.76l.69-3.77H474.4l1.11-6.21a2,2,0,0,0-1.88-2.33h-.91a1.42,1.42,0,0,0-1.4,1.2L470,304.73h-5.84l-.69,3.77h5.84l-3.58,19.86a21.25,21.25,0,0,0-.31,3.22c0,2.47.67,4.25,2,5.32s3.45,1.61,6.25,1.61h4.08l.75-3.84h-3.51a6.93,6.93,0,0,1-3.93-.87,3.45,3.45,0,0,1-1.22-3,12.46,12.46,0,0,1,.25-2.35Z" transform="translate(-289.61 -256.34)"/><path class="cls-5" d="M490.1,314.69a27.35,27.35,0,0,1-8.83-.75.54.54,0,0,1-.39-.65.53.53,0,0,1,.48-.42h.14A25,25,0,0,0,506.2,304a26.8,26.8,0,0,0-3.16-37,25,25,0,0,0-35.9,3.25A26.82,26.82,0,0,0,463,296.91a.56.56,0,0,1-.29.71.47.47,0,0,1-.17,0,.52.52,0,0,1-.52-.33,29.72,29.72,0,0,1,4.23-30.54,27.83,27.83,0,0,1,40-3.62,29.83,29.83,0,0,1,3.52,41.16,28,28,0,0,1-19.65,10.36Z" transform="translate(-289.61 -256.34)"/><path class="cls-6" d="M485.59,302.79c-.27-3.55-1.06-6.67-3.79-8.92s-5.72-2.47-9.2-1.84c1.23-2.2,3.64-2.87,6.57-2.27a9.7,9.7,0,0,1,7.8,8.43C487.16,299.86,487.22,301.58,485.59,302.79Z" transform="translate(-289.61 -256.34)"/><path class="cls-7" d="M494.38,300.34c-.48-5.12-1.75-10.71-6.59-14.75-3.48-2.89-7.68-4.1-12.85-3.71-.7.05-1.43.14-2.18.25a7.83,7.83,0,0,1,5.94-3,14.75,14.75,0,0,1,4.15.32,16.12,16.12,0,0,1,13,14.08C496.1,296.05,496.2,298.49,494.38,300.34Z" transform="translate(-289.61 -256.34)"/><path class="cls-8" d="M503.16,292.83c-1-5.73-3-12.55-9.34-17.23-4.69-3.48-10.19-4.73-16.82-3.84-.45.06-.92.13-1.4.22a9.68,9.68,0,0,1,6.09-3,18,18,0,0,1,5.11.1,19.75,19.75,0,0,1,16.88,16.38C504.13,288.14,504.42,290.7,503.16,292.83Z" transform="translate(-289.61 -256.34)"/></svg>